<svg id="visual" viewBox="0 0 1920 1080" width="1920" height="1080" xmlns="http://www.w3.org/2000/svg" xmlns:xlink="http://www.w3.org/1999/xlink" version="1.1"><rect x="0" y="0" width="1920" height="1080" fill="#673ab7"></rect><path d="M0 732L45.7 730.3C91.3 728.7 182.7 725.3 274.2 730.5C365.7 735.7 457.3 749.3 548.8 761.3C640.3 773.3 731.7 783.7 823 777.2C914.3 770.7 1005.7 747.3 1097 733.3C1188.3 719.3 1279.7 714.7 1371.2 714.3C1462.7 714 1554.3 718 1645.8 730.2C1737.3 742.3 1828.7 762.7 1874.3 772.8L1920 783L1920 1081L1874.3 1081C1828.7 1081 1737.3 1081 1645.8 1081C1554.3 1081 1462.7 1081 1371.2 1081C1279.7 1081 1188.3 1081 1097 1081C1005.7 1081 914.3 1081 823 1081C731.7 1081 640.3 1081 548.8 1081C457.3 1081 365.7 1081 274.2 1081C182.7 1081 91.3 1081 45.7 1081L0 1081Z" fill="#ffc107"></path><path d="M0 820L45.7 823.7C91.3 827.3 182.7 834.7 274.2 833.5C365.7 832.3 457.3 822.7 548.8 821.3C640.3 820 731.7 827 823 830.3C914.3 833.7 1005.7 833.3 1097 829.8C1188.3 826.3 1279.7 819.7 1371.2 814.2C1462.7 808.7 1554.3 804.3 1645.8 803.5C1737.3 802.7 1828.7 805.3 1874.3 806.7L1920 808L1920 1081L1874.3 1081C1828.7 1081 1737.3 1081 1645.8 1081C1554.3 1081 1462.7 1081 1371.2 1081C1279.7 1081 1188.3 1081 1097 1081C1005.7 1081 914.3 1081 823 1081C731.7 1081 640.3 1081 548.8 1081C457.3 1081 365.7 1081 274.2 1081C182.7 1081 91.3 1081 45.7 1081L0 1081Z" fill="#ffb400"></path><path d="M0 806L45.7 809.3C91.3 812.7 182.7 819.3 274.2 828.7C365.7 838 457.3 850 548.8 858C640.3 866 731.7 870 823 870.7C914.3 871.3 1005.7 868.7 1097 858C1188.3 847.3 1279.7 828.7 1371.2 820.5C1462.7 812.3 1554.3 814.7 1645.8 818.5C1737.3 822.3 1828.7 827.7 1874.3 830.3L1920 833L1920 1081L1874.3 1081C1828.7 1081 1737.3 1081 1645.8 1081C1554.3 1081 1462.7 1081 1371.2 1081C1279.7 1081 1188.3 1081 1097 1081C1005.7 1081 914.3 1081 823 1081C731.7 1081 640.3 1081 548.8 1081C457.3 1081 365.7 1081 274.2 1081C182.7 1081 91.3 1081 45.7 1081L0 1081Z" fill="#ffa700"></path><path d="M0 862L45.7 869C91.3 876 182.7 890 274.2 899.3C365.7 908.7 457.3 913.3 548.8 913.3C640.3 913.3 731.7 908.7 823 906.8C914.3 905 1005.7 906 1097 901C1188.3 896 1279.7 885 1371.2 879.2C1462.7 873.3 1554.3 872.7 1645.8 880.8C1737.3 889 1828.7 906 1874.3 914.5L1920 923L1920 1081L1874.3 1081C1828.7 1081 1737.3 1081 1645.8 1081C1554.3 1081 1462.7 1081 1371.2 1081C1279.7 1081 1188.3 1081 1097 1081C1005.7 1081 914.3 1081 823 1081C731.7 1081 640.3 1081 548.8 1081C457.3 1081 365.7 1081 274.2 1081C182.7 1081 91.3 1081 45.7 1081L0 1081Z" fill="#ff9a00"></path><path d="M0 960L45.7 954.7C91.3 949.3 182.7 938.7 274.2 937C365.7 935.3 457.3 942.7 548.8 947.5C640.3 952.3 731.7 954.7 823 950.2C914.3 945.7 1005.7 934.3 1097 928.2C1188.3 922 1279.7 921 1371.2 919.8C1462.7 918.7 1554.3 917.3 1645.8 920.5C1737.3 923.7 1828.7 931.3 1874.3 935.2L1920 939L1920 1081L1874.3 1081C1828.7 1081 1737.3 1081 1645.8 1081C1554.3 1081 1462.7 1081 1371.2 1081C1279.7 1081 1188.3 1081 1097 1081C1005.7 1081 914.3 1081 823 1081C731.7 1081 640.3 1081 548.8 1081C457.3 1081 365.7 1081 274.2 1081C182.7 1081 91.3 1081 45.7 1081L0 1081Z" fill="#ff8c00"></path><path d="M0 988L45.7 987.5C91.3 987 182.7 986 274.2 986.5C365.7 987 457.3 989 548.8 990.2C640.3 991.3 731.7 991.7 823 990.3C914.3 989 1005.7 986 1097 979C1188.3 972 1279.7 961 1371.2 961.8C1462.7 962.7 1554.3 975.3 1645.8 979.7C1737.3 984 1828.7 980 1874.3 978L1920 976L1920 1081L1874.3 1081C1828.7 1081 1737.3 1081 1645.8 1081C1554.3 1081 1462.7 1081 1371.2 1081C1279.7 1081 1188.3 1081 1097 1081C1005.7 1081 914.3 1081 823 1081C731.7 1081 640.3 1081 548.8 1081C457.3 1081 365.7 1081 274.2 1081C182.7 1081 91.3 1081 45.7 1081L0 1081Z" fill="#ff7e00"></path><path d="M0 1051L45.7 1049.8C91.3 1048.7 182.7 1046.3 274.2 1045.8C365.7 1045.3 457.3 1046.7 548.8 1045.7C640.3 1044.7 731.7 1041.3 823 1041C914.3 1040.7 1005.7 1043.3 1097 1042C1188.3 1040.7 1279.7 1035.3 1371.2 1032.5C1462.7 1029.7 1554.3 1029.3 1645.8 1026.3C1737.3 1023.3 1828.7 1017.7 1874.3 1014.8L1920 1012L1920 1081L1874.3 1081C1828.7 1081 1737.3 1081 1645.8 1081C1554.3 1081 1462.7 1081 1371.2 1081C1279.7 1081 1188.3 1081 1097 1081C1005.7 1081 914.3 1081 823 1081C731.7 1081 640.3 1081 548.8 1081C457.3 1081 365.7 1081 274.2 1081C182.7 1081 91.3 1081 45.7 1081L0 1081Z" fill="#ff6f00"></path></svg>