<svg id="visual" viewBox="0 0 960 540" width="960" height="540" xmlns="http://www.w3.org/2000/svg" xmlns:xlink="http://www.w3.org/1999/xlink" version="1.1"><rect x="0" y="0" width="960" height="540" fill="#673ab7"></rect><path d="M0 390L22.8 390C45.7 390 91.3 390 137 384.7C182.7 379.3 228.3 368.7 274 364.5C319.7 360.3 365.3 362.7 411.2 370.3C457 378 503 391 548.8 400.2C594.7 409.3 640.3 414.7 686 408.3C731.7 402 777.3 384 823 376.2C868.7 368.3 914.3 370.7 937.2 371.8L960 373L960 541L937.2 541C914.3 541 868.7 541 823 541C777.3 541 731.7 541 686 541C640.3 541 594.7 541 548.8 541C503 541 457 541 411.2 541C365.3 541 319.7 541 274 541C228.3 541 182.7 541 137 541C91.3 541 45.7 541 22.8 541L0 541Z" fill="#ffc107"></path><path d="M0 419L22.8 415.5C45.7 412 91.3 405 137 400.5C182.7 396 228.3 394 274 392.8C319.7 391.7 365.3 391.3 411.2 396.2C457 401 503 411 548.8 418.8C594.7 426.7 640.3 432.3 686 431.7C731.7 431 777.3 424 823 421.2C868.7 418.3 914.3 419.7 937.2 420.3L960 421L960 541L937.2 541C914.3 541 868.7 541 823 541C777.3 541 731.7 541 686 541C640.3 541 594.7 541 548.8 541C503 541 457 541 411.2 541C365.3 541 319.7 541 274 541C228.3 541 182.7 541 137 541C91.3 541 45.7 541 22.8 541L0 541Z" fill="#ffb400"></path><path d="M0 419L22.8 423.2C45.7 427.3 91.3 435.7 137 441.3C182.7 447 228.3 450 274 447.3C319.7 444.7 365.3 436.3 411.2 433.5C457 430.7 503 433.3 548.8 435.8C594.7 438.3 640.3 440.7 686 444.2C731.7 447.7 777.3 452.3 823 454.3C868.7 456.3 914.3 455.7 937.2 455.3L960 455L960 541L937.2 541C914.3 541 868.7 541 823 541C777.3 541 731.7 541 686 541C640.3 541 594.7 541 548.8 541C503 541 457 541 411.2 541C365.3 541 319.7 541 274 541C228.3 541 182.7 541 137 541C91.3 541 45.7 541 22.8 541L0 541Z" fill="#ffa700"></path><path d="M0 455L22.8 456.5C45.7 458 91.3 461 137 461.2C182.7 461.3 228.3 458.7 274 456.3C319.7 454 365.3 452 411.2 451.5C457 451 503 452 548.8 449C594.7 446 640.3 439 686 440.3C731.7 441.7 777.3 451.3 823 456.3C868.7 461.3 914.3 461.7 937.2 461.8L960 462L960 541L937.2 541C914.3 541 868.7 541 823 541C777.3 541 731.7 541 686 541C640.3 541 594.7 541 548.8 541C503 541 457 541 411.2 541C365.3 541 319.7 541 274 541C228.3 541 182.7 541 137 541C91.3 541 45.7 541 22.8 541L0 541Z" fill="#ff9a00"></path><path d="M0 491L22.8 487C45.7 483 91.3 475 137 471.2C182.7 467.3 228.3 467.7 274 469C319.7 470.3 365.3 472.7 411.2 473.2C457 473.7 503 472.3 548.8 474.7C594.7 477 640.3 483 686 485.7C731.7 488.3 777.3 487.7 823 481.7C868.7 475.7 914.3 464.3 937.2 458.7L960 453L960 541L937.2 541C914.3 541 868.7 541 823 541C777.3 541 731.7 541 686 541C640.3 541 594.7 541 548.8 541C503 541 457 541 411.2 541C365.3 541 319.7 541 274 541C228.3 541 182.7 541 137 541C91.3 541 45.7 541 22.8 541L0 541Z" fill="#ff8c00"></path><path d="M0 475L22.8 480.5C45.7 486 91.3 497 137 501.8C182.7 506.7 228.3 505.3 274 500.2C319.7 495 365.3 486 411.2 485.2C457 484.3 503 491.7 548.8 495.8C594.7 500 640.3 501 686 501.3C731.7 501.7 777.3 501.3 823 502.3C868.7 503.3 914.3 505.7 937.2 506.8L960 508L960 541L937.2 541C914.3 541 868.7 541 823 541C777.3 541 731.7 541 686 541C640.3 541 594.7 541 548.8 541C503 541 457 541 411.2 541C365.3 541 319.7 541 274 541C228.3 541 182.7 541 137 541C91.3 541 45.7 541 22.8 541L0 541Z" fill="#ff7e00"></path><path d="M0 510L22.8 509C45.7 508 91.3 506 137 506.2C182.7 506.3 228.3 508.7 274 509.2C319.7 509.7 365.3 508.3 411.2 508C457 507.7 503 508.3 548.8 507.7C594.7 507 640.3 505 686 506.5C731.7 508 777.3 513 823 513.3C868.7 513.7 914.3 509.3 937.2 507.2L960 505L960 541L937.2 541C914.3 541 868.7 541 823 541C777.3 541 731.7 541 686 541C640.3 541 594.7 541 548.8 541C503 541 457 541 411.2 541C365.3 541 319.7 541 274 541C228.3 541 182.7 541 137 541C91.3 541 45.7 541 22.8 541L0 541Z" fill="#ff6f00"></path></svg>